<?xml version="1.0" encoding="utf-8"?>
<!-- Generator: Adobe Illustrator 17.0.0, SVG Export Plug-In . SVG Version: 6.00 Build 0)  -->
<!DOCTYPE svg PUBLIC "-//W3C//DTD SVG 1.1//EN" "http://www.w3.org/Graphics/SVG/1.1/DTD/svg11.dtd">
<svg version="1.1" id="Calque_1" xmlns="http://www.w3.org/2000/svg" xmlns:xlink="http://www.w3.org/1999/xlink" x="0px" y="0px"
	 width="141.73px" height="141.73px" viewBox="0 0 141.73 141.73" enable-background="new 0 0 141.73 141.73" xml:space="preserve">
<g>
	<path fill="#FFFFFF" d="M74.485,7.276C74.02,6.279,72.74,5.464,71.64,5.464h-0.833c-1.1,0-2.385,0.814-2.855,1.808L15.828,117.489
		c-0.47,0.994-0.855,2.408-0.855,3.141c0,0.733,0.262,1.633,0.583,2c0.321,0.367,1.483,0.667,2.583,0.667h22.333
		c1.1,0,2.378-0.817,2.839-1.815l26.988-58.369c0.462-0.998,1.21-0.995,1.663,0.007l26.354,58.355
		c0.453,1.003,1.723,1.823,2.823,1.823h22.833c1.1,0,2.15-0.262,2.333-0.583c0.183-0.321,0.333-1.258,0.333-2.083
		c0-0.825-0.38-2.316-0.845-3.313L74.485,7.276z"/>
	<path fill="none" stroke="#FFFFFF" stroke-miterlimit="10" d="M74.485,7.276C74.02,6.279,72.74,5.464,71.64,5.464h-0.833
		c-1.1,0-2.385,0.814-2.855,1.808L15.828,117.489c-0.47,0.994-0.855,2.408-0.855,3.141c0,0.733,0.262,1.633,0.583,2
		c0.321,0.367,1.483,0.667,2.583,0.667h22.333c1.1,0,2.378-0.817,2.839-1.815l26.988-58.369c0.462-0.998,1.21-0.995,1.663,0.007
		l26.354,58.355c0.453,1.003,1.723,1.823,2.823,1.823h22.833c1.1,0,2.15-0.262,2.333-0.583c0.183-0.321,0.333-1.258,0.333-2.083
		c0-0.825-0.38-2.316-0.845-3.313L74.485,7.276z"/>
</g>
<g>
	<path fill="#FFFFFF" d="M68.807,136.047L15.828,24.022c-0.47-0.994-0.855-2.408-0.855-3.141s0.262-1.633,0.583-2
		s1.483-0.667,2.583-0.667h22.333c1.1,0,2.378,0.817,2.839,1.815l26.988,58.369c0.462,0.998,1.21,0.995,1.663-0.007l26.354-58.355
		c0.453-1.003,1.723-1.823,2.823-1.823h22.833c1.1,0,2.15,0.262,2.333,0.583s0.333,1.258,0.333,2.083s-0.38,2.316-0.845,3.313
		L73.64,136.047"/>
	<path fill="none" stroke="#FFFFFF" stroke-miterlimit="10" d="M68.807,136.047L15.828,24.022c-0.47-0.994-0.855-2.408-0.855-3.141
		s0.262-1.633,0.583-2s1.483-0.667,2.583-0.667h22.333c1.1,0,2.378,0.817,2.839,1.815l26.988,58.369
		c0.462,0.998,1.21,0.995,1.663-0.007l26.354-58.355c0.453-1.003,1.723-1.823,2.823-1.823h22.833c1.1,0,2.15,0.262,2.333,0.583
		s0.333,1.258,0.333,2.083s-0.38,2.316-0.845,3.313L73.64,136.047"/>
</g>
</svg>
